<svg width="800" height="800" viewBox="0 0 800 800" fill="none" xmlns="http://www.w3.org/2000/svg">
<rect width="800" height="800" rx="140" fill="url(#paint0_linear_9566_127033)"/>
<path d="M173.422 418.009C173.422 318.183 294.875 267.701 366.843 337.613L619.296 582.854C635.018 598.127 624.096 624.59 602.071 624.59H222.613C195.445 624.59 173.422 602.784 173.422 575.885V418.009Z" fill="#AED9FF"/>
<path fill-rule="evenodd" clip-rule="evenodd" d="M219.055 172C193.853 172 173.422 192.431 173.422 217.634V578.956C173.422 553.753 193.853 533.322 219.055 533.322H353.539C367.595 533.322 380.844 526.754 389.354 515.567L621.39 210.532C632.95 194.429 621.442 172 601.619 172H219.055Z" fill="white"/>
<defs>
<linearGradient id="paint0_linear_9566_127033" x1="319" y1="-56.0001" x2="756.737" y2="157.638" gradientUnits="userSpaceOnUse">
<stop stop-color="#00A3FF"/>
<stop offset="0.915329" stop-color="#0070D7"/>
</linearGradient>
</defs>
</svg>
